<svg id="Layer_1" data-name="Layer 1" xmlns="http://www.w3.org/2000/svg" viewBox="0 0 673.06 673.06">
  <defs>
    <style>
      .cls-1 {
        fill: #f43939;
      }
    </style>
  </defs>
  <path class="cls-1" d="M733.64,175.47H290.36A114.89,114.89,0,0,0,175.47,290.36V733.64A114.89,114.89,0,0,0,290.36,848.53H733.64A114.89,114.89,0,0,0,848.53,733.64V290.36A114.89,114.89,0,0,0,733.64,175.47Zm-5.72,318.61-83.34,60.56A32.56,32.56,0,0,0,632.75,591l31.84,98c9.74,30-24.59,54.94-50.11,36.4l-83.34-60.55a32.57,32.57,0,0,0-38.28,0l-83.35,60.55C384,744,349.67,719,359.41,689l31.84-98a32.56,32.56,0,0,0-11.83-36.4l-83.34-60.56c-25.52-18.53-12.41-58.89,19.13-58.89h103a32.55,32.55,0,0,0,31-22.5l31.84-98c9.74-30,52.18-30,61.92,0l31.84,98a32.55,32.55,0,0,0,31,22.5h103C740.33,435.19,753.44,475.55,727.92,494.08Z" transform="translate(-175.47 -175.47)"/>
</svg>
